<?xml version="1.0" encoding="UTF-8" standalone="no"?>
<!DOCTYPE svg PUBLIC "-//W3C//DTD SVG 1.1//EN"
 "http://www.w3.org/Graphics/SVG/1.1/DTD/svg11.dtd">
<!-- Generated by graphviz version 2.40.1 (20161225.0304)
 -->
<!-- Title: Tree Pages: 1 -->
<svg width="1068pt" height="433pt"
 viewBox="0.00 0.00 1068.00 433.00" xmlns="http://www.w3.org/2000/svg" xmlns:xlink="http://www.w3.org/1999/xlink">
<g id="graph0" class="graph" transform="scale(1 1) rotate(0) translate(4 429)">
<title>Tree</title>
<polygon fill="#ffffff" stroke="transparent" points="-4,4 -4,-429 1064,-429 1064,4 -4,4"/>
<!-- 0 -->
<g id="node1" class="node">
<title>0</title>
<polygon fill="#f7d9c3" stroke="#000000" points="598,-425 424,-425 424,-342 598,-342 598,-425"/>
<text text-anchor="middle" x="511" y="-409.8" font-family="Helvetica,sans-Serif" font-size="14.00" fill="#000000">ShelveLoc_Good &lt;= 0.5</text>
<text text-anchor="middle" x="511" y="-394.8" font-family="Helvetica,sans-Serif" font-size="14.00" fill="#000000">entropy = 0.977</text>
<text text-anchor="middle" x="511" y="-379.8" font-family="Helvetica,sans-Serif" font-size="14.00" fill="#000000">samples = 400</text>
<text text-anchor="middle" x="511" y="-364.8" font-family="Helvetica,sans-Serif" font-size="14.00" fill="#000000">value = [236, 164]</text>
<text text-anchor="middle" x="511" y="-349.8" font-family="Helvetica,sans-Serif" font-size="14.00" fill="#000000">class = No</text>
</g>
<!-- 1 -->
<g id="node2" class="node">
<title>1</title>
<polygon fill="#f1ba92" stroke="#000000" points="499,-306 375,-306 375,-223 499,-223 499,-306"/>
<text text-anchor="middle" x="437" y="-290.8" font-family="Helvetica,sans-Serif" font-size="14.00" fill="#000000">Price &lt;= 92.5</text>
<text text-anchor="middle" x="437" y="-275.8" font-family="Helvetica,sans-Serif" font-size="14.00" fill="#000000">entropy = 0.894</text>
<text text-anchor="middle" x="437" y="-260.8" font-family="Helvetica,sans-Serif" font-size="14.00" fill="#000000">samples = 315</text>
<text text-anchor="middle" x="437" y="-245.8" font-family="Helvetica,sans-Serif" font-size="14.00" fill="#000000">value = [217, 98]</text>
<text text-anchor="middle" x="437" y="-230.8" font-family="Helvetica,sans-Serif" font-size="14.00" fill="#000000">class = No</text>
</g>
<!-- 0&#45;&gt;1 -->
<g id="edge1" class="edge">
<title>0&#45;&gt;1</title>
<path fill="none" stroke="#000000" d="M485.1184,-341.8796C479.6858,-333.1434 473.9008,-323.8404 468.2947,-314.8253"/>
<polygon fill="#000000" stroke="#000000" points="471.2451,-312.9418 462.9921,-306.2981 465.3007,-316.6383 471.2451,-312.9418"/>
<text text-anchor="middle" x="457.3153" y="-326.945" font-family="Helvetica,sans-Serif" font-size="14.00" fill="#000000">True</text>
</g>
<!-- 8 -->
<g id="node9" class="node">
<title>8</title>
<polygon fill="#72b9ec" stroke="#000000" points="703,-306 585,-306 585,-223 703,-223 703,-306"/>
<text text-anchor="middle" x="644" y="-290.8" font-family="Helvetica,sans-Serif" font-size="14.00" fill="#000000">Price &lt;= 135.0</text>
<text text-anchor="middle" x="644" y="-275.8" font-family="Helvetica,sans-Serif" font-size="14.00" fill="#000000">entropy = 0.767</text>
<text text-anchor="middle" x="644" y="-260.8" font-family="Helvetica,sans-Serif" font-size="14.00" fill="#000000">samples = 85</text>
<text text-anchor="middle" x="644" y="-245.8" font-family="Helvetica,sans-Serif" font-size="14.00" fill="#000000">value = [19, 66]</text>
<text text-anchor="middle" x="644" y="-230.8" font-family="Helvetica,sans-Serif" font-size="14.00" fill="#000000">class = Yes</text>
</g>
<!-- 0&#45;&gt;8 -->
<g id="edge8" class="edge">
<title>0&#45;&gt;8</title>
<path fill="none" stroke="#000000" d="M557.5169,-341.8796C567.8848,-332.6031 578.9671,-322.6874 589.6199,-313.1559"/>
<polygon fill="#000000" stroke="#000000" points="592.1659,-315.5744 597.2845,-306.2981 587.4983,-310.3577 592.1659,-315.5744"/>
<text text-anchor="middle" x="595.8978" y="-327.5596" font-family="Helvetica,sans-Serif" font-size="14.00" fill="#000000">False</text>
</g>
<!-- 2 -->
<g id="node3" class="node">
<title>2</title>
<polygon fill="#90c8f0" stroke="#000000" points="254,-187 136,-187 136,-104 254,-104 254,-187"/>
<text text-anchor="middle" x="195" y="-171.8" font-family="Helvetica,sans-Serif" font-size="14.00" fill="#000000">Income &lt;= 57.0</text>
<text text-anchor="middle" x="195" y="-156.8" font-family="Helvetica,sans-Serif" font-size="14.00" fill="#000000">entropy = 0.887</text>
<text text-anchor="middle" x="195" y="-141.8" font-family="Helvetica,sans-Serif" font-size="14.00" fill="#000000">samples = 46</text>
<text text-anchor="middle" x="195" y="-126.8" font-family="Helvetica,sans-Serif" font-size="14.00" fill="#000000">value = [14, 32]</text>
<text text-anchor="middle" x="195" y="-111.8" font-family="Helvetica,sans-Serif" font-size="14.00" fill="#000000">class = Yes</text>
</g>
<!-- 1&#45;&gt;2 -->
<g id="edge2" class="edge">
<title>1&#45;&gt;2</title>
<path fill="none" stroke="#000000" d="M374.9932,-234.0091C340.9265,-217.2573 298.5998,-196.4437 263.5523,-179.2096"/>
<polygon fill="#000000" stroke="#000000" points="264.8603,-175.9525 254.3421,-174.6806 261.7713,-182.2342 264.8603,-175.9525"/>
</g>
<!-- 5 -->
<g id="node6" class="node">
<title>5</title>
<polygon fill="#edaa79" stroke="#000000" points="507.5,-187 366.5,-187 366.5,-104 507.5,-104 507.5,-187"/>
<text text-anchor="middle" x="437" y="-171.8" font-family="Helvetica,sans-Serif" font-size="14.00" fill="#000000">Advertising &lt;= 13.5</text>
<text text-anchor="middle" x="437" y="-156.8" font-family="Helvetica,sans-Serif" font-size="14.00" fill="#000000">entropy = 0.804</text>
<text text-anchor="middle" x="437" y="-141.8" font-family="Helvetica,sans-Serif" font-size="14.00" fill="#000000">samples = 269</text>
<text text-anchor="middle" x="437" y="-126.8" font-family="Helvetica,sans-Serif" font-size="14.00" fill="#000000">value = [203, 66]</text>
<text text-anchor="middle" x="437" y="-111.8" font-family="Helvetica,sans-Serif" font-size="14.00" fill="#000000">class = No</text>
</g>
<!-- 1&#45;&gt;5 -->
<g id="edge5" class="edge">
<title>1&#45;&gt;5</title>
<path fill="none" stroke="#000000" d="M437,-222.8796C437,-214.6838 437,-205.9891 437,-197.5013"/>
<polygon fill="#000000" stroke="#000000" points="440.5001,-197.298 437,-187.2981 433.5001,-197.2981 440.5001,-197.298"/>
</g>
<!-- 3 -->
<g id="node4" class="node">
<title>3</title>
<polygon fill="#f0b78e" stroke="#000000" points="118,-68 0,-68 0,0 118,0 118,-68"/>
<text text-anchor="middle" x="59" y="-52.8" font-family="Helvetica,sans-Serif" font-size="14.00" fill="#000000">entropy = 0.881</text>
<text text-anchor="middle" x="59" y="-37.8" font-family="Helvetica,sans-Serif" font-size="14.00" fill="#000000">samples = 10</text>
<text text-anchor="middle" x="59" y="-22.8" font-family="Helvetica,sans-Serif" font-size="14.00" fill="#000000">value = [7, 3]</text>
<text text-anchor="middle" x="59" y="-7.8" font-family="Helvetica,sans-Serif" font-size="14.00" fill="#000000">class = No</text>
</g>
<!-- 2&#45;&gt;3 -->
<g id="edge3" class="edge">
<title>2&#45;&gt;3</title>
<path fill="none" stroke="#000000" d="M144.3586,-103.9815C132.7001,-94.4232 120.312,-84.2668 108.6941,-74.7419"/>
<polygon fill="#000000" stroke="#000000" points="110.7448,-71.8972 100.7925,-68.2637 106.3067,-77.3105 110.7448,-71.8972"/>
</g>
<!-- 4 -->
<g id="node5" class="node">
<title>4</title>
<polygon fill="#69b5eb" stroke="#000000" points="254,-68 136,-68 136,0 254,0 254,-68"/>
<text text-anchor="middle" x="195" y="-52.8" font-family="Helvetica,sans-Serif" font-size="14.00" fill="#000000">entropy = 0.711</text>
<text text-anchor="middle" x="195" y="-37.8" font-family="Helvetica,sans-Serif" font-size="14.00" fill="#000000">samples = 36</text>
<text text-anchor="middle" x="195" y="-22.8" font-family="Helvetica,sans-Serif" font-size="14.00" fill="#000000">value = [7, 29]</text>
<text text-anchor="middle" x="195" y="-7.8" font-family="Helvetica,sans-Serif" font-size="14.00" fill="#000000">class = Yes</text>
</g>
<!-- 2&#45;&gt;4 -->
<g id="edge4" class="edge">
<title>2&#45;&gt;4</title>
<path fill="none" stroke="#000000" d="M195,-103.9815C195,-95.618 195,-86.7965 195,-78.3409"/>
<polygon fill="#000000" stroke="#000000" points="198.5001,-78.2636 195,-68.2637 191.5001,-78.2637 198.5001,-78.2636"/>
</g>
<!-- 6 -->
<g id="node7" class="node">
<title>6</title>
<polygon fill="#eb9d65" stroke="#000000" points="396,-68 272,-68 272,0 396,0 396,-68"/>
<text text-anchor="middle" x="334" y="-52.8" font-family="Helvetica,sans-Serif" font-size="14.00" fill="#000000">entropy = 0.687</text>
<text text-anchor="middle" x="334" y="-37.8" font-family="Helvetica,sans-Serif" font-size="14.00" fill="#000000">samples = 224</text>
<text text-anchor="middle" x="334" y="-22.8" font-family="Helvetica,sans-Serif" font-size="14.00" fill="#000000">value = [183, 41]</text>
<text text-anchor="middle" x="334" y="-7.8" font-family="Helvetica,sans-Serif" font-size="14.00" fill="#000000">class = No</text>
</g>
<!-- 5&#45;&gt;6 -->
<g id="edge6" class="edge">
<title>5&#45;&gt;6</title>
<path fill="none" stroke="#000000" d="M398.6466,-103.9815C390.1566,-94.7908 381.1557,-85.0472 372.6537,-75.8436"/>
<polygon fill="#000000" stroke="#000000" points="375.0081,-73.2343 365.6516,-68.2637 369.8663,-77.9842 375.0081,-73.2343"/>
</g>
<!-- 7 -->
<g id="node8" class="node">
<title>7</title>
<polygon fill="#d7ebfa" stroke="#000000" points="532,-68 414,-68 414,0 532,0 532,-68"/>
<text text-anchor="middle" x="473" y="-52.8" font-family="Helvetica,sans-Serif" font-size="14.00" fill="#000000">entropy = 0.991</text>
<text text-anchor="middle" x="473" y="-37.8" font-family="Helvetica,sans-Serif" font-size="14.00" fill="#000000">samples = 45</text>
<text text-anchor="middle" x="473" y="-22.8" font-family="Helvetica,sans-Serif" font-size="14.00" fill="#000000">value = [20, 25]</text>
<text text-anchor="middle" x="473" y="-7.8" font-family="Helvetica,sans-Serif" font-size="14.00" fill="#000000">class = Yes</text>
</g>
<!-- 5&#45;&gt;7 -->
<g id="edge7" class="edge">
<title>5&#45;&gt;7</title>
<path fill="none" stroke="#000000" d="M450.4051,-103.9815C453.1647,-95.4342 456.0788,-86.4086 458.8635,-77.7839"/>
<polygon fill="#000000" stroke="#000000" points="462.1954,-78.8554 461.9373,-68.2637 455.534,-76.7046 462.1954,-78.8554"/>
</g>
<!-- 9 -->
<g id="node10" class="node">
<title>9</title>
<polygon fill="#53aae8" stroke="#000000" points="703,-187 585,-187 585,-104 703,-104 703,-187"/>
<text text-anchor="middle" x="644" y="-171.8" font-family="Helvetica,sans-Serif" font-size="14.00" fill="#000000">US_Yes &lt;= 0.5</text>
<text text-anchor="middle" x="644" y="-156.8" font-family="Helvetica,sans-Serif" font-size="14.00" fill="#000000">entropy = 0.523</text>
<text text-anchor="middle" x="644" y="-141.8" font-family="Helvetica,sans-Serif" font-size="14.00" fill="#000000">samples = 68</text>
<text text-anchor="middle" x="644" y="-126.8" font-family="Helvetica,sans-Serif" font-size="14.00" fill="#000000">value = [8, 60]</text>
<text text-anchor="middle" x="644" y="-111.8" font-family="Helvetica,sans-Serif" font-size="14.00" fill="#000000">class = Yes</text>
</g>
<!-- 8&#45;&gt;9 -->
<g id="edge9" class="edge">
<title>8&#45;&gt;9</title>
<path fill="none" stroke="#000000" d="M644,-222.8796C644,-214.6838 644,-205.9891 644,-197.5013"/>
<polygon fill="#000000" stroke="#000000" points="647.5001,-197.298 644,-187.2981 640.5001,-197.2981 647.5001,-197.298"/>
</g>
<!-- 12 -->
<g id="node13" class="node">
<title>12</title>
<polygon fill="#f3c6a5" stroke="#000000" points="932,-187 814,-187 814,-104 932,-104 932,-187"/>
<text text-anchor="middle" x="873" y="-171.8" font-family="Helvetica,sans-Serif" font-size="14.00" fill="#000000">Income &lt;= 46.0</text>
<text text-anchor="middle" x="873" y="-156.8" font-family="Helvetica,sans-Serif" font-size="14.00" fill="#000000">entropy = 0.937</text>
<text text-anchor="middle" x="873" y="-141.8" font-family="Helvetica,sans-Serif" font-size="14.00" fill="#000000">samples = 17</text>
<text text-anchor="middle" x="873" y="-126.8" font-family="Helvetica,sans-Serif" font-size="14.00" fill="#000000">value = [11, 6]</text>
<text text-anchor="middle" x="873" y="-111.8" font-family="Helvetica,sans-Serif" font-size="14.00" fill="#000000">class = No</text>
</g>
<!-- 8&#45;&gt;12 -->
<g id="edge12" class="edge">
<title>8&#45;&gt;12</title>
<path fill="none" stroke="#000000" d="M703.271,-233.6998C734.4025,-217.5223 772.6968,-197.6226 805.0275,-180.8219"/>
<polygon fill="#000000" stroke="#000000" points="806.7179,-183.888 813.9774,-176.1711 803.4901,-177.6766 806.7179,-183.888"/>
</g>
<!-- 10 -->
<g id="node11" class="node">
<title>10</title>
<polygon fill="#a5d2f3" stroke="#000000" points="668,-68 550,-68 550,0 668,0 668,-68"/>
<text text-anchor="middle" x="609" y="-52.8" font-family="Helvetica,sans-Serif" font-size="14.00" fill="#000000">entropy = 0.937</text>
<text text-anchor="middle" x="609" y="-37.8" font-family="Helvetica,sans-Serif" font-size="14.00" fill="#000000">samples = 17</text>
<text text-anchor="middle" x="609" y="-22.8" font-family="Helvetica,sans-Serif" font-size="14.00" fill="#000000">value = [6, 11]</text>
<text text-anchor="middle" x="609" y="-7.8" font-family="Helvetica,sans-Serif" font-size="14.00" fill="#000000">class = Yes</text>
</g>
<!-- 9&#45;&gt;10 -->
<g id="edge10" class="edge">
<title>9&#45;&gt;10</title>
<path fill="none" stroke="#000000" d="M630.9673,-103.9815C628.3131,-95.5261 625.512,-86.6026 622.8312,-78.0623"/>
<polygon fill="#000000" stroke="#000000" points="626.0898,-76.7564 619.7554,-68.2637 619.4111,-78.8529 626.0898,-76.7564"/>
</g>
<!-- 11 -->
<g id="node12" class="node">
<title>11</title>
<polygon fill="#41a1e6" stroke="#000000" points="804,-68 686,-68 686,0 804,0 804,-68"/>
<text text-anchor="middle" x="745" y="-52.8" font-family="Helvetica,sans-Serif" font-size="14.00" fill="#000000">entropy = 0.239</text>
<text text-anchor="middle" x="745" y="-37.8" font-family="Helvetica,sans-Serif" font-size="14.00" fill="#000000">samples = 51</text>
<text text-anchor="middle" x="745" y="-22.8" font-family="Helvetica,sans-Serif" font-size="14.00" fill="#000000">value = [2, 49]</text>
<text text-anchor="middle" x="745" y="-7.8" font-family="Helvetica,sans-Serif" font-size="14.00" fill="#000000">class = Yes</text>
</g>
<!-- 9&#45;&gt;11 -->
<g id="edge11" class="edge">
<title>9&#45;&gt;11</title>
<path fill="none" stroke="#000000" d="M681.6087,-103.9815C689.9339,-94.7908 698.76,-85.0472 707.0968,-75.8436"/>
<polygon fill="#000000" stroke="#000000" points="709.8434,-78.0248 713.963,-68.2637 704.6554,-73.3254 709.8434,-78.0248"/>
</g>
<!-- 13 -->
<g id="node14" class="node">
<title>13</title>
<polygon fill="#e58139" stroke="#000000" points="923.5,-68 822.5,-68 822.5,0 923.5,0 923.5,-68"/>
<text text-anchor="middle" x="873" y="-52.8" font-family="Helvetica,sans-Serif" font-size="14.00" fill="#000000">entropy = 0.0</text>
<text text-anchor="middle" x="873" y="-37.8" font-family="Helvetica,sans-Serif" font-size="14.00" fill="#000000">samples = 6</text>
<text text-anchor="middle" x="873" y="-22.8" font-family="Helvetica,sans-Serif" font-size="14.00" fill="#000000">value = [6, 0]</text>
<text text-anchor="middle" x="873" y="-7.8" font-family="Helvetica,sans-Serif" font-size="14.00" fill="#000000">class = No</text>
</g>
<!-- 12&#45;&gt;13 -->
<g id="edge13" class="edge">
<title>12&#45;&gt;13</title>
<path fill="none" stroke="#000000" d="M873,-103.9815C873,-95.618 873,-86.7965 873,-78.3409"/>
<polygon fill="#000000" stroke="#000000" points="876.5001,-78.2636 873,-68.2637 869.5001,-78.2637 876.5001,-78.2636"/>
</g>
<!-- 14 -->
<g id="node15" class="node">
<title>14</title>
<polygon fill="#deeffb" stroke="#000000" points="1060,-68 942,-68 942,0 1060,0 1060,-68"/>
<text text-anchor="middle" x="1001" y="-52.8" font-family="Helvetica,sans-Serif" font-size="14.00" fill="#000000">entropy = 0.994</text>
<text text-anchor="middle" x="1001" y="-37.8" font-family="Helvetica,sans-Serif" font-size="14.00" fill="#000000">samples = 11</text>
<text text-anchor="middle" x="1001" y="-22.8" font-family="Helvetica,sans-Serif" font-size="14.00" fill="#000000">value = [5, 6]</text>
<text text-anchor="middle" x="1001" y="-7.8" font-family="Helvetica,sans-Serif" font-size="14.00" fill="#000000">class = Yes</text>
</g>
<!-- 12&#45;&gt;14 -->
<g id="edge14" class="edge">
<title>12&#45;&gt;14</title>
<path fill="none" stroke="#000000" d="M920.6625,-103.9815C931.5297,-94.5151 943.0705,-84.462 953.9135,-75.0168"/>
<polygon fill="#000000" stroke="#000000" points="956.4245,-77.4712 961.6659,-68.2637 951.8266,-72.1929 956.4245,-77.4712"/>
</g>
</g>
</svg>
